# xmcd
# 
# Track frame offsets:
#     150
#     27200
#     51880
#     72990
#     85625
#     105997
#     123955
#     133215
#     154640
#     163095
#     184687
#     199532
#     228352
#     235080
#     240672
#     262542
#     284467
# 
# Disc length: 3886
# 
# Revision: 22
# Processed by: cddbd v1.5.2PL0 Copyright (c) Steve Scherf et al.
# Submitted via: fre:ac v1.0.17
# 
DISCID=d60f2c11
DTITLE=菅野よう子 - 攻殻機動隊 STAND ALONE COMPLEX O.S.T.2
DYEAR=2004
DGENRE=Soundtrack
TTITLE0=サイバーバード／Gabriela Robin
TTITLE1=rise／ORIGA
TTITLE2=ride on technology
TTITLE3=アイドリング
TTITLE4=i can't be cool／Ilaria Graziano
TTITLE5=3tops
TTITLE6=gonna rice
TTITLE7=GET9／jillmax
TTITLE8=Go DA DA
TTITLE9=サイケデリックソウル／Scott Matthew
TTITLE10=what's it for／Emily Curtis
TTITLE11=living inside the shell／Steve Conte
TTITLE12=ペットフード
TTITLE13=security off
TTITLE14=to tell the truth
TTITLE15=i do／Ilaria Graziano
TTITLE16=we can't be cool
EXTD=YEAR: 2004
EXTT0=
EXTT1=
EXTT2=
EXTT3=
EXTT4=
EXTT5=
EXTT6=
EXTT7=
EXTT8=
EXTT9=
EXTT10=
EXTT11=
EXTT12=
EXTT13=
EXTT14=
EXTT15=
EXTT16=
PLAYORDER=
